<svg width="274" height="160" viewBox="0 0 274 160" fill="none" xmlns="http://www.w3.org/2000/svg">
          <g clip-path="url(#clip0_7151_2285)">
                    <path
                              d="M232.342 76.2542H238.01C244.793 76.2542 250.275 70.7817 250.275 64.0107V60.6716C250.275 53.9005 244.793 48.4281 238.01 48.4281H146.118C139.335 48.4281 133.853 42.9556 133.853 36.1846V32.8455C133.853 26.0745 128.371 20.602 121.588 20.602H62.2163C55.4335 20.602 49.9516 26.0745 49.9516 32.8455V36.1846C49.9516 42.9556 44.4697 48.4281 37.6869 48.4281C30.9042 48.4281 25.4223 53.9005 25.4223 60.6716V64.0107C25.4223 70.7817 30.9042 76.2542 37.6869 76.2542H52.9249C59.7076 76.2542 65.1895 81.7266 65.1895 88.4976V91.8368C65.1895 98.6078 59.7076 104.08 52.9249 104.08H20.0332C13.2505 104.08 7.76855 109.553 7.76855 116.324V119.663C7.76855 126.434 13.2505 131.906 20.0332 131.906H20.1261C26.9089 131.906 32.3908 137.379 32.3908 144.15V147.489C32.3908 154.26 37.8728 159.732 44.6555 159.732H224.537C231.32 159.732 236.802 154.26 236.802 147.489V144.15C236.802 137.379 242.284 131.906 249.067 131.906H255.571C262.354 131.906 267.835 126.434 267.835 119.663V116.324C267.835 109.553 262.354 104.08 255.571 104.08H232.249C225.467 104.08 219.985 98.6078 219.985 91.8368V88.4976C220.078 81.8194 225.559 76.2542 232.342 76.2542Z"
                              fill="#E6E8EB" />
                    <g clip-path="url(#clip1_7151_2285)">
                              <path
                                        d="M118.651 160.535H127.1V38.2275C127.1 36.0366 126.412 33.9354 125.186 32.3862C123.961 30.837 120.566 29.9666 120.566 29.9666C120.566 29.9666 113.773 28.3613 111.849 28.3612C109.925 28.3612 111.046 28.3612 111.046 28.3612C111.046 28.3612 116.003 31.1988 116.933 32.3747C118.158 33.9239 118.651 34.4312 118.651 36.6221V160.535Z"
                                        fill="#C8CFD6" />
                              <path
                                        d="M119.965 160.498H57.5352V36.585C57.5352 34.3941 58.4122 32.2929 59.9732 30.7437C61.5343 29.1944 63.6218 28.3612 65.8295 28.3612H111.582C113.79 28.3612 115.966 29.1944 117.527 30.7437C119.088 32.2929 119.965 34.3941 119.965 36.585V160.498Z"
                                        fill="white" />
                              <path
                                        d="M113.723 51.0749H63.7783C63.2264 51.0749 62.697 50.8572 62.3068 50.4697C61.9165 50.0822 61.6973 49.5566 61.6973 49.0086V36.6103C61.6973 36.0623 61.9165 35.5367 62.3068 35.1492C62.697 34.7617 63.2264 34.5439 63.7783 34.5439H113.723C114.274 34.5439 114.804 34.7617 115.194 35.1492C115.584 35.5367 115.804 36.0623 115.804 36.6103V49.0086C115.804 49.5566 115.584 50.0822 115.194 50.4697C114.804 50.8572 114.274 51.0749 113.723 51.0749Z"
                                        fill="#D5DDE5" />
                              <path
                                        d="M113.723 73.8051H63.7783C63.2264 73.8051 62.697 73.5874 62.3068 73.1999C61.9165 72.8124 61.6973 72.2868 61.6973 71.7387V59.3405C61.6973 58.7924 61.9165 58.2669 62.3068 57.8793C62.697 57.4918 63.2264 57.2741 63.7783 57.2741H113.723C114.274 57.2741 114.804 57.4918 115.194 57.8793C115.584 58.2669 115.804 58.7924 115.804 59.3405V71.7387C115.804 72.2868 115.584 72.8124 115.194 73.1999C114.804 73.5874 114.274 73.8051 113.723 73.8051Z"
                                        fill="#D5DDE5" />
                              <path
                                        d="M113.723 96.5352H63.7783C63.2264 96.5352 62.697 96.3174 62.3068 95.9299C61.9165 95.5424 61.6973 95.0168 61.6973 94.4688V82.0705C61.6973 81.5225 61.9165 80.9969 62.3068 80.6094C62.697 80.2219 63.2264 80.0042 63.7783 80.0042H113.723C114.274 80.0042 114.804 80.2219 115.194 80.6094C115.584 80.9969 115.804 81.5225 115.804 82.0705V94.4688C115.804 95.0168 115.584 95.5424 115.194 95.9299C114.804 96.3174 114.274 96.5352 113.723 96.5352Z"
                                        fill="#D5DDE5" />
                              <path
                                        d="M65.8593 96.5352H63.7783C63.2264 96.5352 62.697 96.3174 62.3068 95.9299C61.9165 95.5424 61.6973 95.0168 61.6973 94.4688V82.0705C61.6973 81.5225 61.9165 80.9969 62.3068 80.6094C62.697 80.2219 63.2264 80.0042 63.7783 80.0042H65.8593V96.5352Z"
                                        fill="#C8CFD6" />
                              <path
                                        d="M65.8593 73.8051H63.7783C63.2264 73.8051 62.697 73.5874 62.3068 73.1999C61.9165 72.8124 61.6973 72.2868 61.6973 71.7387V59.3405C61.6973 58.7924 61.9165 58.2669 62.3068 57.8793C62.697 57.4918 63.2264 57.2741 63.7783 57.2741H65.8593V73.8051Z"
                                        fill="#C8CFD6" />
                              <path
                                        d="M65.8593 51.0749H63.7783C63.2264 51.0749 62.697 50.8572 62.3068 50.4697C61.9165 50.0822 61.6973 49.5566 61.6973 49.0086V36.6103C61.6973 36.0623 61.9165 35.5367 62.3068 35.1492C62.697 34.7617 63.2264 34.5439 63.7783 34.5439H65.8593V51.0749Z"
                                        fill="#C8CFD6" />
                              <path
                                        d="M65.8593 160.593H61.6973V127.531C61.6973 126.983 61.9165 126.457 62.3068 126.07C62.697 125.682 63.2264 125.464 63.7783 125.464C64.3302 125.464 64.8595 125.682 65.2498 126.07C65.64 126.457 65.8593 126.983 65.8593 127.531V160.593Z"
                                        fill="#C8CFD6" />
                              <path
                                        d="M65.8593 160.593V127.531C65.8593 126.208 63.7783 126.291 63.7783 127.531V160.593H65.8593Z"
                                        fill="#D5DDE5" />
                              <path
                                        d="M74.1835 160.593H70.0215V127.531C70.0215 126.983 70.2407 126.457 70.631 126.07C71.0213 125.682 71.5506 125.464 72.1025 125.464C72.6544 125.464 73.1837 125.682 73.574 126.07C73.9643 126.457 74.1835 126.983 74.1835 127.531V160.593Z"
                                        fill="#C8CFD6" />
                              <path
                                        d="M115.804 160.593H111.642V127.531C111.642 126.983 111.861 126.457 112.251 126.07C112.641 125.682 113.171 125.464 113.723 125.464C114.275 125.464 114.804 125.682 115.194 126.07C115.584 126.457 115.804 126.983 115.804 127.531V160.593Z"
                                        fill="#C8CFD6" />
                              <path
                                        d="M107.479 160.593H103.317V127.531C103.317 126.983 103.537 126.457 103.927 126.07C104.317 125.682 104.846 125.464 105.398 125.464C105.95 125.464 106.48 125.682 106.87 126.07C107.26 126.457 107.479 126.983 107.479 127.531V160.593Z"
                                        fill="#C8CFD6" />
                              <path
                                        d="M99.1552 160.593H94.9932V127.531C94.9932 126.983 95.2124 126.457 95.6027 126.07C95.9929 125.682 96.5223 125.464 97.0742 125.464C97.6261 125.464 98.1554 125.682 98.5457 126.07C98.9359 126.457 99.1552 126.983 99.1552 127.531V160.593Z"
                                        fill="#C8CFD6" />
                              <path
                                        d="M90.831 160.593H86.6689V127.531C86.6689 126.983 86.8882 126.457 87.2785 126.07C87.6687 125.682 88.198 125.464 88.75 125.464C89.3019 125.464 89.8312 125.682 90.2215 126.07C90.6117 126.457 90.831 126.983 90.831 127.531V160.593Z"
                                        fill="#C8CFD6" />
                              <path
                                        d="M82.5077 160.593H78.3457V127.531C78.3457 126.983 78.565 126.457 78.9552 126.07C79.3455 125.682 79.8748 125.464 80.4267 125.464C80.9786 125.464 81.5079 125.682 81.8982 126.07C82.2885 126.457 82.5077 126.983 82.5077 127.531V160.593Z"
                                        fill="#C8CFD6" />
                              <path
                                        d="M113.723 119.265H63.7783C63.2264 119.265 62.697 119.048 62.3068 118.66C61.9165 118.273 61.6973 117.747 61.6973 117.199V104.801C61.6973 104.253 61.9165 103.727 62.3068 103.34C62.697 102.952 63.2264 102.734 63.7783 102.734H113.723C114.274 102.734 114.804 102.952 115.194 103.34C115.584 103.727 115.804 104.253 115.804 104.801V117.199C115.804 117.747 115.584 118.273 115.194 118.66C114.804 119.048 114.274 119.265 113.723 119.265Z"
                                        fill="#D5DDE5" />
                              <path
                                        d="M65.8593 119.265H63.7783C63.2264 119.265 62.697 119.048 62.3068 118.66C61.9165 118.273 61.6973 117.747 61.6973 117.199V104.801C61.6973 104.253 61.9165 103.727 62.3068 103.34C62.697 102.952 63.2264 102.734 63.7783 102.734H65.8593V119.265Z"
                                        fill="#C8CFD6" />
                              <path
                                        d="M74.1835 160.593V127.531C74.1835 126.208 72.1025 126.291 72.1025 127.531V160.593H74.1835Z"
                                        fill="#D5DDE5" />
                              <path
                                        d="M82.5068 160.593V127.531C82.5068 126.208 80.4258 126.291 80.4258 127.531V160.593H82.5068Z"
                                        fill="#D5DDE5" />
                              <path
                                        d="M90.831 160.593V127.531C90.831 126.208 88.75 126.291 88.75 127.531V160.593H90.831Z"
                                        fill="#D5DDE5" />
                              <path
                                        d="M99.1552 160.593V127.531C99.1552 126.208 97.0742 126.291 97.0742 127.531V160.593H99.1552Z"
                                        fill="#D5DDE5" />
                              <path
                                        d="M107.479 160.593V127.531C107.479 126.208 105.398 126.291 105.398 127.531V160.593H107.479Z"
                                        fill="#D5DDE5" />
                              <path
                                        d="M115.804 160.593V127.531C115.804 126.208 113.723 126.291 113.723 127.531V160.593H115.804Z"
                                        fill="#D5DDE5" />
                              <path
                                        d="M113.723 115.133C113.723 115.541 113.601 115.941 113.372 116.281C113.143 116.62 112.818 116.885 112.438 117.042C112.058 117.198 111.639 117.239 111.236 117.159C110.832 117.08 110.461 116.883 110.17 116.594C109.879 116.305 109.681 115.937 109.601 115.536C109.52 115.135 109.561 114.719 109.719 114.342C109.876 113.964 110.143 113.642 110.485 113.414C110.828 113.187 111.23 113.066 111.642 113.066C112.193 113.066 112.723 113.284 113.113 113.671C113.503 114.059 113.723 114.585 113.723 115.133Z"
                                        fill="#E6E8EB" />
                              <path
                                        d="M105.398 115.133C105.398 115.541 105.276 115.941 105.048 116.281C104.819 116.62 104.494 116.885 104.114 117.042C103.733 117.198 103.315 117.239 102.911 117.159C102.508 117.08 102.137 116.883 101.846 116.594C101.555 116.305 101.357 115.937 101.276 115.536C101.196 115.135 101.237 114.719 101.395 114.342C101.552 113.964 101.819 113.642 102.161 113.414C102.503 113.187 102.906 113.066 103.317 113.066C103.869 113.066 104.399 113.284 104.789 113.671C105.179 114.059 105.398 114.585 105.398 115.133Z"
                                        fill="#C8CFD6" />
                              <path
                                        d="M97.0741 115.133C97.0741 115.541 96.9521 115.941 96.7234 116.281C96.4948 116.62 96.1697 116.885 95.7895 117.042C95.4092 117.198 94.9908 117.239 94.5871 117.159C94.1835 117.08 93.8127 116.883 93.5216 116.594C93.2306 116.305 93.0324 115.937 92.9521 115.536C92.8718 115.135 92.913 114.719 93.0705 114.342C93.228 113.964 93.4948 113.642 93.837 113.414C94.1792 113.187 94.5815 113.066 94.9931 113.066C95.545 113.066 96.0744 113.284 96.4646 113.671C96.8549 114.059 97.0741 114.585 97.0741 115.133Z"
                                        fill="#C8CFD6" />
                              <path
                                        d="M88.7499 115.133C88.7499 115.541 88.6279 115.941 88.3992 116.281C88.1705 116.62 87.8455 116.885 87.4653 117.042C87.085 117.198 86.6666 117.239 86.2629 117.159C85.8592 117.08 85.4884 116.883 85.1974 116.594C84.9064 116.305 84.7082 115.937 84.6279 115.536C84.5476 115.135 84.5888 114.719 84.7463 114.342C84.9038 113.964 85.1705 113.642 85.5128 113.414C85.855 113.187 86.2573 113.066 86.6689 113.066C87.2208 113.066 87.7501 113.284 88.1404 113.671C88.5307 114.059 88.7499 114.585 88.7499 115.133Z"
                                        fill="#C8CFD6" />
                              <path
                                        d="M80.4267 115.133C80.4267 115.541 80.3046 115.941 80.076 116.281C79.8473 116.62 79.5223 116.885 79.142 117.042C78.7618 117.198 78.3433 117.239 77.9397 117.159C77.536 117.08 77.1652 116.883 76.8742 116.594C76.5831 116.305 76.3849 115.937 76.3046 115.536C76.2243 115.135 76.2656 114.719 76.4231 114.342C76.5806 113.964 76.8473 113.642 77.1895 113.414C77.5317 113.187 77.9341 113.066 78.3457 113.066C78.8976 113.066 79.4269 113.284 79.8172 113.671C80.2074 114.059 80.4267 114.585 80.4267 115.133Z"
                                        fill="white" />
                              <path
                                        d="M72.1025 115.133C72.1025 115.541 71.9804 115.941 71.7517 116.281C71.5231 116.62 71.1981 116.885 70.8178 117.042C70.4376 117.198 70.0191 117.239 69.6155 117.159C69.2118 117.08 68.841 116.883 68.5499 116.594C68.2589 116.305 68.0607 115.937 67.9804 115.536C67.9001 115.135 67.9413 114.719 68.0988 114.342C68.2563 113.964 68.5231 113.642 68.8653 113.414C69.2075 113.187 69.6099 113.066 70.0214 113.066C70.5734 113.066 71.1027 113.284 71.4929 113.671C71.8832 114.059 72.1025 114.585 72.1025 115.133Z"
                                        fill="white" />
                              <path
                                        d="M113.723 106.867C113.723 107.276 113.601 107.675 113.372 108.015C113.143 108.355 112.818 108.62 112.438 108.776C112.058 108.933 111.639 108.973 111.236 108.894C110.832 108.814 110.461 108.617 110.17 108.328C109.879 108.039 109.681 107.671 109.601 107.27C109.52 106.869 109.561 106.454 109.719 106.076C109.876 105.699 110.143 105.376 110.485 105.149C110.828 104.922 111.23 104.801 111.642 104.801C112.193 104.801 112.723 105.018 113.113 105.406C113.503 105.793 113.723 106.319 113.723 106.867Z"
                                        fill="#E6E8EB" />
                              <path
                                        d="M105.398 106.867C105.398 107.276 105.276 107.675 105.048 108.015C104.819 108.355 104.494 108.62 104.114 108.776C103.733 108.933 103.315 108.973 102.911 108.894C102.508 108.814 102.137 108.617 101.846 108.328C101.555 108.039 101.357 107.671 101.276 107.27C101.196 106.869 101.237 106.454 101.395 106.076C101.552 105.699 101.819 105.376 102.161 105.149C102.503 104.922 102.906 104.801 103.317 104.801C103.869 104.801 104.399 105.018 104.789 105.406C105.179 105.793 105.398 106.319 105.398 106.867Z"
                                        fill="#EAF2F7" />
                              <path
                                        d="M97.0741 106.867C97.0741 107.276 96.9521 107.675 96.7234 108.015C96.4948 108.355 96.1697 108.62 95.7895 108.776C95.4092 108.933 94.9908 108.973 94.5871 108.894C94.1835 108.814 93.8127 108.617 93.5216 108.328C93.2306 108.039 93.0324 107.671 92.9521 107.27C92.8718 106.869 92.913 106.454 93.0705 106.076C93.228 105.699 93.4948 105.376 93.837 105.149C94.1792 104.922 94.5815 104.801 94.9931 104.801C95.545 104.801 96.0744 105.018 96.4646 105.406C96.8549 105.793 97.0741 106.319 97.0741 106.867Z"
                                        fill="#C8CFD6" />
                              <path
                                        d="M88.7499 106.867C88.7499 107.276 88.6279 107.675 88.3992 108.015C88.1705 108.355 87.8455 108.62 87.4653 108.776C87.085 108.933 86.6666 108.973 86.2629 108.894C85.8592 108.814 85.4884 108.617 85.1974 108.328C84.9064 108.039 84.7082 107.671 84.6279 107.27C84.5476 106.869 84.5888 106.454 84.7463 106.076C84.9038 105.699 85.1705 105.376 85.5128 105.149C85.855 104.922 86.2573 104.801 86.6689 104.801C87.2208 104.801 87.7501 105.018 88.1404 105.406C88.5307 105.793 88.7499 106.319 88.7499 106.867Z"
                                        fill="#D4D6D9" />
                              <path
                                        d="M80.4267 106.867C80.4267 107.276 80.3046 107.675 80.076 108.015C79.8473 108.355 79.5223 108.62 79.142 108.776C78.7618 108.933 78.3433 108.973 77.9397 108.894C77.536 108.814 77.1652 108.617 76.8742 108.328C76.5831 108.039 76.3849 107.671 76.3046 107.27C76.2243 106.869 76.2656 106.454 76.4231 106.076C76.5806 105.699 76.8473 105.376 77.1895 105.149C77.5317 104.922 77.9341 104.801 78.3457 104.801C78.8976 104.801 79.4269 105.018 79.8172 105.406C80.2074 105.793 80.4267 106.319 80.4267 106.867Z"
                                        fill="#E6E8EB" />
                              <path
                                        d="M72.1025 106.867C72.1025 107.276 71.9804 107.675 71.7517 108.015C71.5231 108.355 71.1981 108.62 70.8178 108.776C70.4376 108.933 70.0191 108.973 69.6155 108.894C69.2118 108.814 68.841 108.617 68.5499 108.328C68.2589 108.039 68.0607 107.671 67.9804 107.27C67.9001 106.869 67.9413 106.454 68.0988 106.076C68.2563 105.699 68.5231 105.376 68.8653 105.149C69.2075 104.922 69.6099 104.801 70.0214 104.801C70.5734 104.801 71.1027 105.018 71.4929 105.406C71.8832 105.793 72.1025 106.319 72.1025 106.867Z"
                                        fill="#D4D6D9" />
                              <path
                                        d="M113.723 84.1369C113.723 84.5456 113.601 84.9451 113.372 85.285C113.143 85.6248 112.818 85.8896 112.438 86.046C112.058 86.2024 111.639 86.2433 111.236 86.1636C110.832 86.0839 110.461 85.8871 110.17 85.5981C109.879 85.3091 109.681 84.9409 109.601 84.5401C109.52 84.1392 109.561 83.7237 109.719 83.3462C109.876 82.9686 110.143 82.6459 110.485 82.4188C110.828 82.1918 111.23 82.0706 111.642 82.0706C112.193 82.0706 112.723 82.2883 113.113 82.6758C113.503 83.0633 113.723 83.5889 113.723 84.1369Z"
                                        fill="white" />
                              <path
                                        d="M113.723 92.4024C113.723 92.8111 113.601 93.2106 113.372 93.5504C113.143 93.8902 112.818 94.1551 112.438 94.3115C112.058 94.4679 111.639 94.5088 111.236 94.429C110.832 94.3493 110.461 94.1525 110.17 93.8635C109.879 93.5745 109.681 93.2063 109.601 92.8055C109.52 92.4047 109.561 91.9892 109.719 91.6116C109.876 91.234 110.143 90.9113 110.485 90.6843C110.828 90.4572 111.23 90.336 111.642 90.336C112.193 90.336 112.723 90.5537 113.113 90.9412C113.503 91.3288 113.723 91.8543 113.723 92.4024Z"
                                        fill="white" />
                              <path
                                        d="M105.577 83.9393C105.577 84.348 105.455 84.7475 105.226 85.0873C104.998 85.4271 104.673 85.692 104.292 85.8484C103.912 86.0048 103.494 86.0457 103.09 85.966C102.686 85.8862 102.316 85.6894 102.025 85.4004C101.734 85.1115 101.535 84.7433 101.455 84.3424C101.375 83.9416 101.416 83.5261 101.573 83.1485C101.731 82.771 101.998 82.4482 102.34 82.2212C102.682 81.9941 103.084 81.8729 103.496 81.8729C104.048 81.8729 104.577 82.0906 104.968 82.4782C105.358 82.8657 105.577 83.3913 105.577 83.9393Z"
                                        fill="#EAF2F7" />
                              <path
                                        d="M97.0741 84.1369C97.0741 84.5456 96.9521 84.9451 96.7234 85.285C96.4948 85.6248 96.1697 85.8896 95.7895 86.046C95.4092 86.2024 94.9908 86.2433 94.5871 86.1636C94.1835 86.0839 93.8127 85.8871 93.5216 85.5981C93.2306 85.3091 93.0324 84.9409 92.9521 84.5401C92.8718 84.1392 92.913 83.7237 93.0705 83.3462C93.228 82.9686 93.4948 82.6459 93.837 82.4188C94.1792 82.1918 94.5815 82.0706 94.9931 82.0706C95.545 82.0706 96.0744 82.2883 96.4646 82.6758C96.8549 83.0633 97.0741 83.5889 97.0741 84.1369Z"
                                        fill="white" />
                              <path
                                        d="M105.398 92.4024C105.398 92.8111 105.276 93.2106 105.048 93.5504C104.819 93.8902 104.494 94.1551 104.114 94.3115C103.733 94.4679 103.315 94.5088 102.911 94.429C102.508 94.3493 102.137 94.1525 101.846 93.8635C101.555 93.5745 101.357 93.2063 101.276 92.8055C101.196 92.4047 101.237 91.9892 101.395 91.6116C101.552 91.234 101.819 90.9113 102.161 90.6843C102.503 90.4572 102.906 90.336 103.317 90.336C103.869 90.336 104.399 90.5537 104.789 90.9412C105.179 91.3288 105.398 91.8543 105.398 92.4024Z"
                                        fill="#EAF2F7" />
                              <path
                                        d="M97.0741 92.4024C97.0741 92.8111 96.9521 93.2106 96.7234 93.5504C96.4948 93.8902 96.1697 94.1551 95.7895 94.3115C95.4092 94.4679 94.9908 94.5088 94.5871 94.429C94.1835 94.3493 93.8127 94.1525 93.5216 93.8635C93.2306 93.5745 93.0324 93.2063 92.9521 92.8055C92.8718 92.4047 92.913 91.9892 93.0705 91.6116C93.228 91.234 93.4948 90.9113 93.837 90.6843C94.1792 90.4572 94.5815 90.336 94.9931 90.336C95.545 90.336 96.0744 90.5537 96.4646 90.9412C96.8549 91.3288 97.0741 91.8543 97.0741 92.4024Z"
                                        fill="#C8CFD6" />
                              <path
                                        d="M88.7499 84.1369C88.7499 84.5456 88.6279 84.9451 88.3992 85.285C88.1705 85.6248 87.8455 85.8896 87.4653 86.046C87.085 86.2024 86.6666 86.2433 86.2629 86.1636C85.8592 86.0839 85.4884 85.8871 85.1974 85.5981C84.9064 85.3091 84.7082 84.9409 84.6279 84.5401C84.5476 84.1392 84.5888 83.7237 84.7463 83.3462C84.9038 82.9686 85.1705 82.6459 85.5128 82.4188C85.855 82.1918 86.2573 82.0706 86.6689 82.0706C87.2208 82.0706 87.7501 82.2883 88.1404 82.6758C88.5307 83.0633 88.7499 83.5889 88.7499 84.1369Z"
                                        fill="white" />
                              <path
                                        d="M80.4267 84.1369C80.4267 84.5456 80.3046 84.9451 80.076 85.285C79.8473 85.6248 79.5223 85.8896 79.142 86.046C78.7618 86.2024 78.3433 86.2433 77.9397 86.1636C77.536 86.0839 77.1652 85.8871 76.8742 85.5981C76.5831 85.3091 76.3849 84.9409 76.3046 84.5401C76.2243 84.1392 76.2656 83.7237 76.4231 83.3462C76.5806 82.9686 76.8473 82.6459 77.1895 82.4188C77.5317 82.1918 77.9341 82.0706 78.3457 82.0706C78.8976 82.0706 79.4269 82.2883 79.8172 82.6758C80.2074 83.0633 80.4267 83.5889 80.4267 84.1369Z"
                                        fill="#E6E8EB" />
                              <path
                                        d="M88.7499 92.4024C88.7499 92.8111 88.6279 93.2106 88.3992 93.5504C88.1705 93.8902 87.8455 94.1551 87.4653 94.3115C87.085 94.4679 86.6666 94.5088 86.2629 94.429C85.8592 94.3493 85.4884 94.1525 85.1974 93.8635C84.9064 93.5745 84.7082 93.2063 84.6279 92.8055C84.5476 92.4047 84.5888 91.9892 84.7463 91.6116C84.9038 91.234 85.1705 90.9113 85.5128 90.6843C85.855 90.4572 86.2573 90.336 86.6689 90.336C87.2208 90.336 87.7501 90.5537 88.1404 90.9412C88.5307 91.3288 88.7499 91.8543 88.7499 92.4024Z"
                                        fill="#D4D6D9" />
                              <path
                                        d="M80.4267 92.4024C80.4267 92.8111 80.3046 93.2106 80.076 93.5504C79.8473 93.8902 79.5223 94.1551 79.142 94.3115C78.7618 94.4679 78.3433 94.5088 77.9397 94.429C77.536 94.3493 77.1652 94.1525 76.8742 93.8635C76.5831 93.5745 76.3849 93.2063 76.3046 92.8055C76.2243 92.4047 76.2656 91.9892 76.4231 91.6116C76.5806 91.234 76.8473 90.9113 77.1895 90.6843C77.5317 90.4572 77.9341 90.336 78.3457 90.336C78.8976 90.336 79.4269 90.5537 79.8172 90.9412C80.2074 91.3288 80.4267 91.8543 80.4267 92.4024Z"
                                        fill="#C8CFD6" />
                              <path
                                        d="M72.1025 84.1369C72.1025 84.5456 71.9804 84.9451 71.7517 85.285C71.5231 85.6248 71.1981 85.8896 70.8178 86.046C70.4376 86.2024 70.0191 86.2433 69.6155 86.1636C69.2118 86.0839 68.841 85.8871 68.5499 85.5981C68.2589 85.3091 68.0607 84.9409 67.9804 84.5401C67.9001 84.1392 67.9413 83.7237 68.0988 83.3462C68.2563 82.9686 68.5231 82.6459 68.8653 82.4188C69.2075 82.1918 69.6099 82.0706 70.0214 82.0706C70.5734 82.0706 71.1027 82.2883 71.4929 82.6758C71.8832 83.0633 72.1025 83.5889 72.1025 84.1369Z"
                                        fill="#D4D6D9" />
                              <path
                                        d="M72.1025 92.4024C72.1025 92.8111 71.9804 93.2106 71.7517 93.5504C71.5231 93.8902 71.1981 94.1551 70.8178 94.3115C70.4376 94.4679 70.0191 94.5088 69.6155 94.429C69.2118 94.3493 68.841 94.1525 68.5499 93.8635C68.2589 93.5745 68.0607 93.2063 67.9804 92.8055C67.9001 92.4047 67.9413 91.9892 68.0988 91.6116C68.2563 91.234 68.5231 90.9113 68.8653 90.6843C69.2075 90.4572 69.6099 90.336 70.0214 90.336C70.5734 90.336 71.1027 90.5537 71.4929 90.9412C71.8832 91.3288 72.1025 91.8543 72.1025 92.4024Z"
                                        fill="white" />
                              <path
                                        d="M113.723 61.4069C113.723 61.8156 113.601 62.2151 113.372 62.5549C113.143 62.8947 112.818 63.1596 112.438 63.316C112.058 63.4724 111.639 63.5133 111.236 63.4336C110.832 63.3538 110.461 63.157 110.17 62.868C109.879 62.579 109.681 62.2109 109.601 61.81C109.52 61.4092 109.561 60.9937 109.719 60.6161C109.876 60.2385 110.143 59.9158 110.485 59.6888C110.828 59.4617 111.23 59.3405 111.642 59.3405C112.193 59.3405 112.723 59.5582 113.113 59.9457C113.503 60.3333 113.723 60.8589 113.723 61.4069Z"
                                        fill="white" />
                              <path
                                        d="M113.723 69.6723C113.723 70.081 113.601 70.4805 113.372 70.8203C113.143 71.1602 112.818 71.425 112.438 71.5814C112.058 71.7378 111.639 71.7787 111.236 71.699C110.832 71.6193 110.461 71.4225 110.17 71.1335C109.879 70.8445 109.681 70.4763 109.601 70.0755C109.52 69.6746 109.561 69.2591 109.719 68.8816C109.876 68.504 110.143 68.1813 110.485 67.9542C110.828 67.7271 111.23 67.606 111.642 67.606C112.193 67.606 112.723 67.8237 113.113 68.2112C113.503 68.5987 113.723 69.1243 113.723 69.6723Z"
                                        fill="#E6E8EB" />
                              <path
                                        d="M105.398 61.4069C105.398 61.8156 105.276 62.2151 105.048 62.5549C104.819 62.8947 104.494 63.1596 104.114 63.316C103.733 63.4724 103.315 63.5133 102.911 63.4336C102.508 63.3538 102.137 63.157 101.846 62.868C101.555 62.579 101.357 62.2109 101.276 61.81C101.196 61.4092 101.237 60.9937 101.395 60.6161C101.552 60.2385 101.819 59.9158 102.161 59.6888C102.503 59.4617 102.906 59.3405 103.317 59.3405C103.869 59.3405 104.399 59.5582 104.789 59.9457C105.179 60.3333 105.398 60.8589 105.398 61.4069Z"
                                        fill="#E6E8EB" />
                              <path
                                        d="M97.0741 61.4069C97.0741 61.8156 96.9521 62.2151 96.7234 62.5549C96.4948 62.8947 96.1697 63.1596 95.7895 63.316C95.4092 63.4724 94.9908 63.5133 94.5871 63.4336C94.1835 63.3538 93.8127 63.157 93.5216 62.868C93.2306 62.579 93.0324 62.2109 92.9521 61.81C92.8718 61.4092 92.913 60.9937 93.0705 60.6161C93.228 60.2385 93.4948 59.9158 93.837 59.6888C94.1792 59.4617 94.5815 59.3405 94.9931 59.3405C95.545 59.3405 96.0744 59.5582 96.4646 59.9457C96.8549 60.3333 97.0741 60.8589 97.0741 61.4069Z"
                                        fill="#D4D6D9" />
                              <path
                                        d="M105.398 69.6723C105.398 70.081 105.276 70.4805 105.048 70.8203C104.819 71.1602 104.494 71.425 104.114 71.5814C103.733 71.7378 103.315 71.7787 102.911 71.699C102.508 71.6193 102.137 71.4225 101.846 71.1335C101.555 70.8445 101.357 70.4763 101.276 70.0755C101.196 69.6746 101.237 69.2591 101.395 68.8816C101.552 68.504 101.819 68.1813 102.161 67.9542C102.503 67.7271 102.906 67.606 103.317 67.606C103.869 67.606 104.399 67.8237 104.789 68.2112C105.179 68.5987 105.398 69.1243 105.398 69.6723Z"
                                        fill="white" />
                              <path
                                        d="M97.0741 69.6723C97.0741 70.081 96.9521 70.4805 96.7234 70.8203C96.4948 71.1602 96.1697 71.425 95.7895 71.5814C95.4092 71.7378 94.9908 71.7787 94.5871 71.699C94.1835 71.6193 93.8127 71.4225 93.5216 71.1335C93.2306 70.8445 93.0324 70.4763 92.9521 70.0755C92.8718 69.6746 92.913 69.2591 93.0705 68.8816C93.228 68.504 93.4948 68.1813 93.837 67.9542C94.1792 67.7271 94.5815 67.606 94.9931 67.606C95.545 67.606 96.0744 67.8237 96.4646 68.2112C96.8549 68.5987 97.0741 69.1243 97.0741 69.6723Z"
                                        fill="#D4D6D9" />
                              <path
                                        d="M88.7499 61.4069C88.7499 61.8156 88.6279 62.2151 88.3992 62.5549C88.1705 62.8947 87.8455 63.1596 87.4653 63.316C87.085 63.4724 86.6666 63.5133 86.2629 63.4336C85.8592 63.3538 85.4884 63.157 85.1974 62.868C84.9064 62.579 84.7082 62.2109 84.6279 61.81C84.5476 61.4092 84.5888 60.9937 84.7463 60.6161C84.9038 60.2385 85.1705 59.9158 85.5128 59.6888C85.855 59.4617 86.2573 59.3405 86.6689 59.3405C87.2208 59.3405 87.7501 59.5582 88.1404 59.9457C88.5307 60.3333 88.7499 60.8589 88.7499 61.4069Z"
                                        fill="#C8CFD6" />
                              <path
                                        d="M80.4267 61.4069C80.4267 61.8156 80.3046 62.2151 80.076 62.5549C79.8473 62.8947 79.5223 63.1596 79.142 63.316C78.7618 63.4724 78.3433 63.5133 77.9397 63.4336C77.536 63.3538 77.1652 63.157 76.8742 62.868C76.5831 62.579 76.3849 62.2109 76.3046 61.81C76.2243 61.4092 76.2656 60.9937 76.4231 60.6161C76.5806 60.2385 76.8473 59.9158 77.1895 59.6888C77.5317 59.4617 77.9341 59.3405 78.3457 59.3405C78.8976 59.3405 79.4269 59.5582 79.8172 59.9457C80.2074 60.3333 80.4267 60.8589 80.4267 61.4069Z"
                                        fill="white" />
                              <path
                                        d="M88.7499 69.6723C88.7499 70.081 88.6279 70.4805 88.3992 70.8203C88.1705 71.1602 87.8455 71.425 87.4653 71.5814C87.085 71.7378 86.6666 71.7787 86.2629 71.699C85.8592 71.6193 85.4884 71.4225 85.1974 71.1335C84.9064 70.8445 84.7082 70.4763 84.6279 70.0755C84.5476 69.6746 84.5888 69.2591 84.7463 68.8816C84.9038 68.504 85.1705 68.1813 85.5128 67.9542C85.855 67.7271 86.2573 67.606 86.6689 67.606C87.2208 67.606 87.7501 67.8237 88.1404 68.2112C88.5307 68.5987 88.7499 69.1243 88.7499 69.6723Z"
                                        fill="white" />
                              <path
                                        d="M80.4267 69.6723C80.4267 70.081 80.3046 70.4805 80.076 70.8203C79.8473 71.1602 79.5223 71.425 79.142 71.5814C78.7618 71.7378 78.3433 71.7787 77.9397 71.699C77.536 71.6193 77.1652 71.4225 76.8742 71.1335C76.5831 70.8445 76.3849 70.4763 76.3046 70.0755C76.2243 69.6746 76.2656 69.2591 76.4231 68.8816C76.5806 68.504 76.8473 68.1813 77.1895 67.9542C77.5317 67.7271 77.9341 67.606 78.3457 67.606C78.8976 67.606 79.4269 67.8237 79.8172 68.2112C80.2074 68.5987 80.4267 69.1243 80.4267 69.6723Z"
                                        fill="#D4D6D9" />
                              <path
                                        d="M72.1025 61.4069C72.1025 61.8156 71.9804 62.2151 71.7517 62.5549C71.5231 62.8947 71.1981 63.1596 70.8178 63.316C70.4376 63.4724 70.0191 63.5133 69.6155 63.4336C69.2118 63.3538 68.841 63.157 68.5499 62.868C68.2589 62.579 68.0607 62.2109 67.9804 61.81C67.9001 61.4092 67.9413 60.9937 68.0988 60.6161C68.2563 60.2385 68.5231 59.9158 68.8653 59.6888C69.2075 59.4617 69.6099 59.3405 70.0214 59.3405C70.5734 59.3405 71.1027 59.5582 71.4929 59.9457C71.8832 60.3333 72.1025 60.8589 72.1025 61.4069Z"
                                        fill="#EAF2F7" />
                              <path
                                        d="M72.1025 69.6723C72.1025 70.081 71.9804 70.4805 71.7517 70.8203C71.5231 71.1602 71.1981 71.425 70.8178 71.5814C70.4376 71.7378 70.0191 71.7787 69.6155 71.699C69.2118 71.6193 68.841 71.4225 68.5499 71.1335C68.2589 70.8445 68.0607 70.4763 67.9804 70.0755C67.9001 69.6746 67.9413 69.2591 68.0988 68.8816C68.2563 68.504 68.5231 68.1813 68.8653 67.9542C69.2075 67.7271 69.6099 67.606 70.0214 67.606C70.5734 67.606 71.1027 67.8237 71.4929 68.2112C71.8832 68.5987 72.1025 69.1243 72.1025 69.6723Z"
                                        fill="#D4D6D9" />
                              <path
                                        d="M113.723 38.6767C113.723 39.0854 113.601 39.4849 113.372 39.8247C113.143 40.1645 112.818 40.4293 112.438 40.5857C112.058 40.7421 111.639 40.7831 111.236 40.7033C110.832 40.6236 110.461 40.4268 110.17 40.1378C109.879 39.8488 109.681 39.4806 109.601 39.0798C109.52 38.679 109.561 38.2635 109.719 37.8859C109.876 37.5083 110.143 37.1856 110.485 36.9585C110.828 36.7315 111.23 36.6103 111.642 36.6103C112.193 36.6103 112.723 36.828 113.113 37.2155C113.503 37.603 113.723 38.1286 113.723 38.6767Z"
                                        fill="white" />
                              <path
                                        d="M113.723 46.9422C113.723 47.3509 113.601 47.7504 113.372 48.0902C113.143 48.4301 112.818 48.6949 112.438 48.8513C112.058 49.0077 111.639 49.0486 111.236 48.9689C110.832 48.8892 110.461 48.6924 110.17 48.4034C109.879 48.1144 109.681 47.7462 109.601 47.3454C109.52 46.9445 109.561 46.529 109.719 46.1515C109.876 45.7739 110.143 45.4512 110.485 45.2241C110.828 44.997 111.23 44.8759 111.642 44.8759C112.193 44.8759 112.723 45.0936 113.113 45.4811C113.503 45.8686 113.723 46.3942 113.723 46.9422Z"
                                        fill="#D4D6D9" />
                              <path
                                        d="M105.398 38.6767C105.398 39.0854 105.276 39.4849 105.048 39.8247C104.819 40.1645 104.494 40.4293 104.114 40.5857C103.733 40.7421 103.315 40.7831 102.911 40.7033C102.508 40.6236 102.137 40.4268 101.846 40.1378C101.555 39.8488 101.357 39.4806 101.276 39.0798C101.196 38.679 101.237 38.2635 101.395 37.8859C101.552 37.5083 101.819 37.1856 102.161 36.9585C102.503 36.7315 102.906 36.6103 103.317 36.6103C103.869 36.6103 104.399 36.828 104.789 37.2155C105.179 37.603 105.398 38.1286 105.398 38.6767Z"
                                        fill="#EAF2F7" />
                              <path
                                        d="M97.0741 38.6767C97.0741 39.0854 96.9521 39.4849 96.7234 39.8247C96.4948 40.1645 96.1697 40.4293 95.7895 40.5857C95.4092 40.7421 94.9908 40.7831 94.5871 40.7033C94.1835 40.6236 93.8127 40.4268 93.5216 40.1378C93.2306 39.8488 93.0324 39.4806 92.9521 39.0798C92.8718 38.679 92.913 38.2635 93.0705 37.8859C93.228 37.5083 93.4948 37.1856 93.837 36.9585C94.1792 36.7315 94.5815 36.6103 94.9931 36.6103C95.545 36.6103 96.0744 36.828 96.4646 37.2155C96.8549 37.603 97.0741 38.1286 97.0741 38.6767Z"
                                        fill="white" />
                              <path
                                        d="M105.398 46.9422C105.398 47.3509 105.276 47.7504 105.048 48.0902C104.819 48.4301 104.494 48.6949 104.114 48.8513C103.733 49.0077 103.315 49.0486 102.911 48.9689C102.508 48.8892 102.137 48.6924 101.846 48.4034C101.555 48.1144 101.357 47.7462 101.276 47.3454C101.196 46.9445 101.237 46.529 101.395 46.1515C101.552 45.7739 101.819 45.4512 102.161 45.2241C102.503 44.997 102.906 44.8759 103.317 44.8759C103.869 44.8759 104.399 45.0936 104.789 45.4811C105.179 45.8686 105.398 46.3942 105.398 46.9422Z"
                                        fill="#C8CFD6" />
                              <path
                                        d="M97.0741 46.9422C97.0741 47.3509 96.9521 47.7504 96.7234 48.0902C96.4948 48.4301 96.1697 48.6949 95.7895 48.8513C95.4092 49.0077 94.9908 49.0486 94.5871 48.9689C94.1835 48.8892 93.8127 48.6924 93.5216 48.4034C93.2306 48.1144 93.0324 47.7462 92.9521 47.3454C92.8718 46.9445 92.913 46.529 93.0705 46.1515C93.228 45.7739 93.4948 45.4512 93.837 45.2241C94.1792 44.997 94.5815 44.8759 94.9931 44.8759C95.545 44.8759 96.0744 45.0936 96.4646 45.4811C96.8549 45.8686 97.0741 46.3942 97.0741 46.9422Z"
                                        fill="#D4D6D9" />
                              <path
                                        d="M88.7499 38.6767C88.7499 39.0854 88.6279 39.4849 88.3992 39.8247C88.1705 40.1645 87.8455 40.4293 87.4653 40.5857C87.085 40.7421 86.6666 40.7831 86.2629 40.7033C85.8592 40.6236 85.4884 40.4268 85.1974 40.1378C84.9064 39.8488 84.7082 39.4806 84.6279 39.0798C84.5476 38.679 84.5888 38.2635 84.7463 37.8859C84.9038 37.5083 85.1705 37.1856 85.5128 36.9585C85.855 36.7315 86.2573 36.6103 86.6689 36.6103C87.2208 36.6103 87.7501 36.828 88.1404 37.2155C88.5307 37.603 88.7499 38.1286 88.7499 38.6767Z"
                                        fill="#C8CFD6" />
                              <path
                                        d="M80.4267 38.6767C80.4267 39.0854 80.3046 39.4849 80.076 39.8247C79.8473 40.1645 79.5223 40.4293 79.142 40.5857C78.7618 40.7421 78.3433 40.7831 77.9397 40.7033C77.536 40.6236 77.1652 40.4268 76.8742 40.1378C76.5831 39.8488 76.3849 39.4806 76.3046 39.0798C76.2243 38.679 76.2656 38.2635 76.4231 37.8859C76.5806 37.5083 76.8473 37.1856 77.1895 36.9585C77.5317 36.7315 77.9341 36.6103 78.3457 36.6103C78.8976 36.6103 79.4269 36.828 79.8172 37.2155C80.2074 37.603 80.4267 38.1286 80.4267 38.6767Z"
                                        fill="white" />
                              <path
                                        d="M88.7499 46.9422C88.7499 47.3509 88.6279 47.7504 88.3992 48.0902C88.1705 48.4301 87.8455 48.6949 87.4653 48.8513C87.085 49.0077 86.6666 49.0486 86.2629 48.9689C85.8592 48.8892 85.4884 48.6924 85.1974 48.4034C84.9064 48.1144 84.7082 47.7462 84.6279 47.3454C84.5476 46.9445 84.5888 46.529 84.7463 46.1515C84.9038 45.7739 85.1705 45.4512 85.5128 45.2241C85.855 44.997 86.2573 44.8759 86.6689 44.8759C87.2208 44.8759 87.7501 45.0936 88.1404 45.4811C88.5307 45.8686 88.7499 46.3942 88.7499 46.9422Z"
                                        fill="#D4D6D9" />
                              <path
                                        d="M80.4267 46.9422C80.4267 47.3509 80.3046 47.7504 80.076 48.0902C79.8473 48.4301 79.5223 48.6949 79.142 48.8513C78.7618 49.0077 78.3433 49.0486 77.9397 48.9689C77.536 48.8892 77.1652 48.6924 76.8742 48.4034C76.5831 48.1144 76.3849 47.7462 76.3046 47.3454C76.2243 46.9445 76.2656 46.529 76.4231 46.1515C76.5806 45.7739 76.8473 45.4512 77.1895 45.2241C77.5317 44.997 77.9341 44.8759 78.3457 44.8759C78.8976 44.8759 79.4269 45.0936 79.8172 45.4811C80.2074 45.8686 80.4267 46.3942 80.4267 46.9422Z"
                                        fill="#D4D6D9" />
                              <path
                                        d="M72.1025 38.6767C72.1025 39.0854 71.9804 39.4849 71.7517 39.8247C71.5231 40.1645 71.1981 40.4293 70.8178 40.5857C70.4376 40.7421 70.0191 40.7831 69.6155 40.7033C69.2118 40.6236 68.841 40.4268 68.5499 40.1378C68.2589 39.8488 68.0607 39.4806 67.9804 39.0798C67.9001 38.679 67.9413 38.2635 68.0988 37.8859C68.2563 37.5083 68.5231 37.1856 68.8653 36.9585C69.2075 36.7315 69.6099 36.6103 70.0214 36.6103C70.5734 36.6103 71.1027 36.828 71.4929 37.2155C71.8832 37.603 72.1025 38.1286 72.1025 38.6767Z"
                                        fill="#D4D6D9" />
                              <path
                                        d="M72.1025 46.9422C72.1025 47.3509 71.9804 47.7504 71.7517 48.0902C71.5231 48.4301 71.1981 48.6949 70.8178 48.8513C70.4376 49.0077 70.0191 49.0486 69.6155 48.9689C69.2118 48.8892 68.841 48.6924 68.5499 48.4034C68.2589 48.1144 68.0607 47.7462 67.9804 47.3454C67.9001 46.9445 67.9413 46.529 68.0988 46.1515C68.2563 45.7739 68.5231 45.4512 68.8653 45.2241C69.2075 44.997 69.6099 44.8759 70.0214 44.8759C70.5734 44.8759 71.1027 45.0936 71.4929 45.4811C71.8832 45.8686 72.1025 46.3942 72.1025 46.9422Z"
                                        fill="white" />
                              <path d="M115.845 154.394H113.764V156.46H115.845V154.394Z"
                                        fill="#C8CFD6" />
                              <path d="M115.845 158.526H113.764V160.593H115.845V158.526Z"
                                        fill="#C8CFD6" />
                              <path d="M115.845 146.128H113.764V148.195H115.845V146.128Z"
                                        fill="#C8CFD6" />
                              <path d="M115.845 150.261H113.764V152.327H115.845V150.261Z"
                                        fill="#C8CFD6" />
                              <path d="M115.845 137.863H113.764V139.929H115.845V137.863Z"
                                        fill="#C8CFD6" />
                              <path d="M115.845 141.995H113.764V144.062H115.845V141.995Z"
                                        fill="#C8CFD6" />
                              <path d="M115.845 129.597H113.764V131.664H115.845V129.597Z"
                                        fill="#C8CFD6" />
                              <path d="M115.845 133.73H113.764V135.796H115.845V133.73Z"
                                        fill="#C8CFD6" />
                              <path d="M107.521 154.394H105.44V156.46H107.521V154.394Z"
                                        fill="#C8CFD6" />
                              <path d="M107.521 158.526H105.44V160.593H107.521V158.526Z"
                                        fill="#C8CFD6" />
                              <path d="M107.521 146.128H105.44V148.195H107.521V146.128Z"
                                        fill="#C8CFD6" />
                              <path d="M107.521 150.261H105.44V152.327H107.521V150.261Z"
                                        fill="#C8CFD6" />
                              <path d="M107.521 137.863H105.44V139.929H107.521V137.863Z"
                                        fill="#C8CFD6" />
                              <path d="M107.521 141.995H105.44V144.062H107.521V141.995Z"
                                        fill="#C8CFD6" />
                              <path d="M107.521 129.597H105.44V131.664H107.521V129.597Z"
                                        fill="#C8CFD6" />
                              <path d="M107.521 133.73H105.44V135.796H107.521V133.73Z"
                                        fill="#C8CFD6" />
                              <path d="M99.1972 154.394H97.1162V156.46H99.1972V154.394Z"
                                        fill="#C8CFD6" />
                              <path d="M99.1972 158.526H97.1162V160.593H99.1972V158.526Z"
                                        fill="#C8CFD6" />
                              <path d="M99.1972 146.128H97.1162V148.195H99.1972V146.128Z"
                                        fill="#C8CFD6" />
                              <path d="M99.1972 150.261H97.1162V152.327H99.1972V150.261Z"
                                        fill="#C8CFD6" />
                              <path d="M99.1972 137.863H97.1162V139.929H99.1972V137.863Z"
                                        fill="#C8CFD6" />
                              <path d="M99.1972 141.995H97.1162V144.062H99.1972V141.995Z"
                                        fill="#C8CFD6" />
                              <path d="M99.1972 129.597H97.1162V131.664H99.1972V129.597Z"
                                        fill="#C8CFD6" />
                              <path d="M99.1972 133.73H97.1162V135.796H99.1972V133.73Z"
                                        fill="#C8CFD6" />
                              <path d="M90.873 154.394H88.792V156.46H90.873V154.394Z" fill="#C8CFD6" />
                              <path d="M90.873 158.526H88.792V160.593H90.873V158.526Z"
                                        fill="#C8CFD6" />
                              <path d="M90.873 146.128H88.792V148.195H90.873V146.128Z"
                                        fill="#C8CFD6" />
                              <path d="M90.873 150.261H88.792V152.327H90.873V150.261Z"
                                        fill="#C8CFD6" />
                              <path d="M90.873 137.863H88.792V139.929H90.873V137.863Z"
                                        fill="#C8CFD6" />
                              <path d="M90.873 141.995H88.792V144.062H90.873V141.995Z"
                                        fill="#C8CFD6" />
                              <path d="M90.873 129.597H88.792V131.664H90.873V129.597Z"
                                        fill="#C8CFD6" />
                              <path d="M90.873 133.73H88.792V135.796H90.873V133.73Z" fill="#C8CFD6" />
                              <path d="M82.5488 154.394H80.4678V156.46H82.5488V154.394Z"
                                        fill="#C8CFD6" />
                              <path d="M82.5488 158.526H80.4678V160.593H82.5488V158.526Z"
                                        fill="#C8CFD6" />
                              <path d="M82.5488 146.128H80.4678V148.195H82.5488V146.128Z"
                                        fill="#C8CFD6" />
                              <path d="M82.5488 150.261H80.4678V152.327H82.5488V150.261Z"
                                        fill="#C8CFD6" />
                              <path d="M82.5488 137.863H80.4678V139.929H82.5488V137.863Z"
                                        fill="#C8CFD6" />
                              <path d="M82.5488 141.995H80.4678V144.062H82.5488V141.995Z"
                                        fill="#C8CFD6" />
                              <path d="M82.5488 129.597H80.4678V131.664H82.5488V129.597Z"
                                        fill="#C8CFD6" />
                              <path d="M82.5488 133.73H80.4678V135.796H82.5488V133.73Z"
                                        fill="#C8CFD6" />
                              <path d="M65.9003 154.394H63.8193V156.46H65.9003V154.394Z"
                                        fill="#C8CFD6" />
                              <path d="M65.9003 158.526H63.8193V160.593H65.9003V158.526Z"
                                        fill="#C8CFD6" />
                              <path d="M65.9003 146.128H63.8193V148.195H65.9003V146.128Z"
                                        fill="#C8CFD6" />
                              <path d="M65.9003 150.261H63.8193V152.327H65.9003V150.261Z"
                                        fill="#C8CFD6" />
                              <path d="M65.9003 137.863H63.8193V139.929H65.9003V137.863Z"
                                        fill="#C8CFD6" />
                              <path d="M65.9003 141.995H63.8193V144.062H65.9003V141.995Z"
                                        fill="#C8CFD6" />
                              <path d="M65.9003 129.597H63.8193V131.664H65.9003V129.597Z"
                                        fill="#C8CFD6" />
                              <path d="M65.9003 133.73H63.8193V135.796H65.9003V133.73Z"
                                        fill="#C8CFD6" />
                              <path d="M74.2246 154.394H72.1436V156.46H74.2246V154.394Z"
                                        fill="#C8CFD6" />
                              <path d="M74.2246 158.526H72.1436V160.593H74.2246V158.526Z"
                                        fill="#C8CFD6" />
                              <path d="M74.2246 146.128H72.1436V148.195H74.2246V146.128Z"
                                        fill="#C8CFD6" />
                              <path d="M74.2246 150.261H72.1436V152.327H74.2246V150.261Z"
                                        fill="#C8CFD6" />
                              <path d="M74.2246 137.863H72.1436V139.929H74.2246V137.863Z"
                                        fill="#C8CFD6" />
                              <path d="M74.2246 141.995H72.1436V144.062H74.2246V141.995Z"
                                        fill="#C8CFD6" />
                              <path d="M74.2246 129.597H72.1436V131.664H74.2246V129.597Z"
                                        fill="#C8CFD6" />
                              <path d="M74.2246 133.73H72.1436V135.796H74.2246V133.73Z"
                                        fill="#C8CFD6" />
                    </g>
                    <path
                              d="M230.688 24.1141V27.0469C230.688 32.9939 235.497 37.8004 241.447 37.8004H262.964C268.914 37.8004 273.722 32.9939 273.722 27.0469V24.1141C273.722 18.167 268.914 13.3605 262.964 13.3605H241.528C235.579 13.279 230.688 18.167 230.688 24.1141Z"
                              fill="#F2F4F7" />
                    <path
                              d="M0.277344 48.554V51.4868C0.277344 57.4338 5.08606 62.2404 11.0358 62.2404H16.2521C22.2018 62.2404 27.0105 57.4338 27.0105 51.4868V48.554C27.0105 42.607 22.2018 37.8004 16.2521 37.8004H11.0358C5.08606 37.719 0.277344 42.607 0.277344 48.554Z"
                              fill="#F2F4F7" />
                    <path
                              d="M111.04 97.5152C111.285 97.5152 111.529 97.5152 111.774 97.4338C111.937 97.4338 111.937 97.1079 111.774 97.1079C111.529 97.0264 111.366 97.0264 111.04 97.0264C110.714 97.1079 110.714 97.5152 111.04 97.5152Z"
                              fill="#A1A9B2" />
                    <path
                              d="M114.953 97.5152C115.198 97.5152 115.443 97.5152 115.687 97.4338C115.85 97.4338 115.85 97.1079 115.687 97.1079C115.443 97.0264 115.28 97.0264 114.953 97.0264C114.627 97.1079 114.627 97.5152 114.953 97.5152Z"
                              fill="#A1A9B2" />
                    <path
                              d="M97.919 93.279C98.082 94.1751 97.919 96.945 96.3704 96.2933C95.2294 95.8045 94.9849 94.0122 95.3109 93.0346C95.9629 91.2423 97.43 93.279 97.3485 94.4195C97.3485 94.6639 97.1855 95.3971 96.8594 95.5601C96.2889 95.8859 95.8814 95.1527 95.8814 94.7454C95.8814 94.4195 95.8814 94.1751 96.1259 94.0937C96.4519 93.9307 96.5334 94.0937 96.4519 94.6639C95.9629 94.7454 96.1259 94.6639 97.0225 94.501C97.267 94.0122 96.8594 93.4419 96.2889 93.6049C96.0444 93.6863 95.8814 93.6863 95.6369 93.7678C94.9034 93.9307 95.2294 95.0713 95.9629 94.9083C96.2074 94.9083 96.3704 94.8269 96.6149 94.8269C96.3704 94.501 96.1259 94.2566 95.8814 93.9307C95.5554 94.4195 95.3924 95.3157 96.0444 95.6415C96.6964 95.9674 97.3485 95.3971 97.43 94.7454C97.593 93.1161 95.2294 92.9531 94.8219 94.501C94.4143 96.1303 96.6964 96.6191 97.593 95.5601C98.6525 94.2566 97.104 92.1385 95.5554 92.6273C93.9253 93.1975 94.0883 95.6415 95.1479 96.6191C96.6149 97.9226 98.245 96.6191 98.6525 95.0713C98.9785 93.4419 98.0005 91.1609 96.1259 90.9165C94.3328 90.7535 93.5178 92.7087 93.5993 94.1751C93.6808 95.8859 95.0664 98.167 97.104 97.7597C99.06 97.3523 99.3861 94.7454 98.897 93.1975C98.6525 92.3829 97.8375 92.6273 97.919 93.279Z"
                              fill="#A1A9B3" />
                    <path
                              d="M112.345 94.4196C110.226 92.7088 105.091 89.4502 103.379 89.3687C101.994 89.2872 100.69 89.8575 99.5488 90.5092C98.4892 91.1609 97.1851 91.8941 96.6146 92.9532C96.5331 93.1161 96.4516 93.2791 96.6146 93.442C96.6961 93.5235 96.8591 93.5235 97.0221 93.5235C98.0002 93.442 98.8967 93.1161 99.7933 92.9532C101.749 92.4644 103.787 92.3015 105.825 92.4644"
                              fill="#E6E8EB" />
                    <path
                              d="M105.091 93.1976C99.8746 92.3829 100.038 94.0122 99.8746 94.8269C99.7116 95.6415 100.445 96.5377 101.097 96.8635C100.853 98.2485 101.097 98.5743 102.238 99.389C101.668 101.018 104.113 101.507 105.498 101.67C106.069 101.752 107.21 101.589 107.699 101.344C108.188 101.1 108.269 100.692 108.106 100.204C109.166 101.426 111.937 101.589 112.997 100.367C113.16 100.122 113.404 99.8778 113.649 99.7963C113.893 99.7149 114.219 99.0631 114.464 99.1446C115.686 99.389 115.605 98.7373 116.909 98.9817"
                              fill="#E6E8EB" />
                    <g opacity="0.2">
                              <path
                                        d="M101.831 97.0264C102.727 97.1893 106.476 97.7596 106.069 95.9673C106.069 95.8859 105.987 95.8859 105.987 95.9673C105.987 97.4337 102.809 97.0264 101.912 96.9449C101.831 96.8635 101.749 97.0264 101.831 97.0264Z"
                                        fill="#A1A9B2" />
                    </g>
                    <g opacity="0.2">
                              <path
                                        d="M102.646 99.6334C103.787 99.9592 105.254 99.9592 106.232 99.1446C106.802 98.6558 107.047 97.6782 106.313 97.1894C106.232 97.1079 106.15 97.2708 106.232 97.2708C107.128 98.167 105.987 99.0631 105.172 99.3075C104.357 99.5519 103.461 99.5519 102.646 99.389C102.646 99.4704 102.564 99.6334 102.646 99.6334Z"
                                        fill="#A1A9B2" />
                    </g>
                    <g opacity="0.2">
                              <path
                                        d="M106.802 99.1445C107.128 99.226 107.373 99.3889 107.536 99.6333C107.699 99.8777 107.78 100.122 107.943 100.367C108.025 100.448 108.188 100.448 108.188 100.367C108.351 99.6333 107.454 99.0631 106.802 98.9816C106.721 98.9001 106.721 99.0631 106.802 99.1445Z"
                                        fill="#A1A9B2" />
                    </g>
                    <path
                              d="M197.761 141.67C197.924 137.026 199.88 126.517 197.272 120.978C190.752 122.363 178.119 123.34 169.561 123.096C161.736 122.851 153.586 121.629 151.63 120.978C150.733 123.91 146.088 142.485 143.479 159.919H168.094C169.724 155.519 171.109 151.446 171.924 148.921C171.924 148.921 172.25 153.646 172.821 159.919H196.457C197.027 152.261 197.679 145.173 197.761 141.67Z"
                              fill="#D5DDE5" />
                    <path
                              d="M135.492 93.8493L142.257 106.395C143.072 106.558 143.887 106.558 144.621 106.477C149.185 105.825 151.874 100.692 152.037 100.285C152.852 98.4929 154.075 95.8859 155.461 92.8717C160.106 83.0957 166.708 69.4908 166.708 69.4908L149.103 51.1609C149.103 51.1609 144.947 54.9898 142.991 64.1955C142.665 65.8248 141.197 72.4236 139.486 79.5112C139.078 81.3035 138.589 83.2587 138.019 85.0509C137.856 85.5397 137.774 86.0285 137.611 86.5173C136.552 90.5906 135.492 93.8493 135.492 93.8493Z"
                              fill="#F5F5F5" />
                    <path
                              d="M140.952 106.64C134.432 106.965 127.26 105.01 121.228 103.707C115.279 102.485 111.855 101.181 111.855 101.181C111.855 101.181 112.915 100.285 113.323 97.3524C113.73 94.501 112.915 92.8717 112.915 92.8717C112.915 92.8717 130.275 92.1385 137.203 90.998L147.717 105.336C145.924 106.069 143.642 106.477 140.952 106.64Z"
                              fill="#F5F5F5" />
                    <path
                              d="M205.061 159.732H176.907C176.624 153.473 176.263 146.14 175.971 140.343C175.823 137.405 175.693 134.862 175.601 133.053C175.554 132.148 175.517 131.427 175.491 130.933L175.462 130.366L175.454 130.219L175.452 130.182L175.452 130.176V129.45V129.2L175.202 129.183C168.232 128.719 161.188 128.328 154.213 127.941L153.117 127.88C151.489 127.725 149.861 127.644 148.24 127.566C148.423 122.854 148.744 119.174 149.033 115.858C149.135 114.691 149.232 113.57 149.319 112.465C149.656 108.159 149.82 104.111 149.37 98.6339L149.369 98.6292C149.125 96.1845 148.881 93.7449 148.718 91.306L148.718 91.3016C148.555 89.347 148.392 87.3918 148.229 85.5179C147.618 77.535 147.15 69.8473 147.221 63.7098C147.257 60.6405 147.427 57.9675 147.779 55.8432C148.131 53.7223 148.657 52.1954 149.371 51.355C156.223 45.9718 169.487 43.2084 183.929 46.1269C184.761 46.3262 187.81 47.4547 191.066 49.1478C194.335 50.8476 197.743 53.0821 199.331 55.4642C200.764 57.6126 201.511 60.4967 201.886 63.5056C202.261 66.5102 202.261 69.6104 202.221 72.175L202.221 72.1759C202.18 75.3823 201.916 78.5708 201.621 81.7677C201.574 82.2668 201.528 82.7662 201.481 83.2659C201.227 85.9634 200.973 88.6699 200.835 91.3905C200.345 99.7168 200.917 108.04 201.487 116.344L201.488 116.352L201.488 116.355C201.607 117.881 201.934 121.277 202.34 125.509C203.33 135.798 204.794 151.029 204.91 156.337C204.91 156.338 204.91 156.339 204.91 156.34L205.178 156.334L205.061 159.732Z"
                              fill="white" stroke="#A1A9B2" stroke-width="0.535117" />
                    <path
                              d="M183.824 47.9836C184.068 49.2871 184.313 50.672 184.557 52.057C184.802 53.4419 184.965 54.7454 185.128 56.1303V56.2932L185.046 56.3747C183.824 57.6781 182.601 58.9001 181.379 60.2036L181.297 59.7963L183.498 61.3441C184.231 61.8329 184.965 62.4032 185.617 62.9735C184.802 62.5661 184.068 62.0773 183.253 61.67L180.971 60.2851L180.727 60.1221L180.971 59.8777C182.194 58.5743 183.335 57.2708 184.639 56.0488L184.557 56.2932C184.394 54.9083 184.231 53.6048 184.15 52.2199C183.987 50.7535 183.905 49.3686 183.824 47.9836Z"
                              fill="#A1A9B2" />
                    <path
                              d="M149.347 104.114C149.999 97.7597 149.184 91.4868 148.369 85.1324C147.962 82.1181 147.554 79.1039 147.391 76.0081C147.147 72.7495 147.473 69.4094 147.31 66.1507C147.31 66.0692 147.147 65.9878 147.147 66.1507C145.68 72.0163 146.984 78.8595 147.717 84.7251C148.532 91.1609 149.51 97.5967 149.266 104.114C149.184 104.196 149.347 104.196 149.347 104.114Z"
                              fill="#A1A9B2" />
                    <path
                              d="M146.332 76.5784C145.68 74.9491 144.702 73.0753 143.072 72.2607C142.99 72.1792 142.827 72.3421 142.909 72.4236C143.398 73.1568 144.05 73.6456 144.539 74.3788C145.11 75.112 145.68 75.9267 146.088 76.6599C146.251 76.7413 146.414 76.6599 146.332 76.5784Z"
                              fill="#A1A9B2" />
                    <path
                              d="M161.736 46.6802C160.514 48.0651 159.372 49.5315 158.313 51.0794C157.253 52.6272 156.357 54.1751 155.705 55.8859L155.623 55.6415C156.52 56.6191 157.416 57.6781 158.394 58.7372L158.639 58.9816L158.313 59.1445L153.586 62.2403L153.749 61.9144C154.156 63.7067 154.482 65.4174 154.808 67.2097C155.134 69.002 155.46 70.7942 155.705 72.505C155.949 74.2973 156.275 76.0895 156.438 77.8818C156.601 79.6741 156.846 81.4663 156.846 83.2586C156.683 81.4663 156.438 79.6741 156.112 77.8818C155.868 76.0895 155.542 74.2973 155.216 72.5865L154.238 67.2912L153.178 61.9959L153.097 61.7515L153.26 61.67L157.987 58.5743L157.905 58.9816C157.009 57.9225 156.112 56.9449 155.216 55.8859L155.134 55.7229L155.216 55.56C155.949 53.8492 156.927 52.2199 158.068 50.7535C159.209 49.3686 160.432 47.9836 161.736 46.6802Z"
                              fill="#A1A9B2" />
                    <path
                              d="M175.102 130.183C175.102 130.183 169.723 130.754 164.099 130.183C161.491 129.939 158.476 129.206 158.476 129.206C158.476 129.206 160.024 89.613 160.35 72.2607C160.595 60.9369 161.98 53.1161 163.692 48.8798C164.262 47.332 164.996 46.2729 165.648 45.6212C165.811 45.4583 165.974 45.2953 166.137 45.2139C170.62 42.5255 181.215 45.5397 181.215 45.5397C181.215 45.5397 179.911 48.1467 179.096 50.7536C179.015 51.1609 178.851 51.5682 178.77 51.9756C177.547 57.3524 177.466 59.5519 175.999 74.9491C174.695 90.3462 175.102 130.183 175.102 130.183Z"
                              fill="#D5DDE5" />
                    <path
                              d="M181.297 45.4582C181.297 45.4582 179.993 48.0651 179.178 50.6721C174.288 52.3828 171.435 52.8716 167.768 52.1384C165.648 51.7311 164.181 50.3462 163.692 48.7983C164.263 47.2505 164.996 46.1914 165.648 45.5397C165.811 45.3767 165.974 45.2953 166.137 45.1323C166.301 44.9694 166.382 44.8879 166.382 44.725C166.545 43.9918 166.545 43.6659 166.545 43.2586C166.545 42.9327 166.464 42.6069 166.382 42.0366C166.219 40.4888 166.056 38.8594 166.056 38.8594L168.746 37.0672L179.26 26.6395L179.586 30.1425C179.586 30.1425 179.423 40.1629 180.645 44.4806C180.727 44.8879 180.971 45.2138 181.297 45.4582Z"
                              fill="white" />
                    <path
                              d="M174.125 35.1935C174.125 35.1935 173.392 40.0815 166.627 43.1772C166.627 42.8513 166.545 42.5255 166.464 41.9552C166.301 40.4073 166.138 38.778 166.138 38.778L168.827 36.9857L174.125 35.1935Z"
                              fill="#F2F4F7" />
                    <path
                              d="M168.908 84.0733L166.626 98.0041C158.476 93.9308 149.999 88.7169 144.213 85.2139C140.219 82.7699 136.551 80.7332 136.551 80.7332C136.551 80.7332 136.062 80.163 137.122 77.3931C137.774 75.6823 138.996 75.8452 138.996 75.8452C138.996 75.8452 153.259 79.5112 165.322 83.0143C166.626 83.3401 167.849 83.7475 168.908 84.0733Z"
                              fill="#D4D6D9" />
                    <path
                              d="M200.695 60.7739C201.184 64.0326 200.695 67.78 200.614 70.3869C200.532 72.0977 200.451 73.89 199.962 75.6008C199.147 78.4521 197.354 80.9776 195.642 83.4216C193.441 86.5173 191.159 89.4501 188.877 92.4643C187.166 94.8269 185.78 98.7372 183.172 100.285C180.319 102.322 177.385 103.788 170.05 101.018C162.633 98.167 150.571 91.4867 150.571 91.4867C152.282 90.7535 152.608 85.4582 151.712 82.1996C150.815 78.5336 149.022 78.2077 148.94 78.2077C148.94 78.2077 171.761 83.9918 171.843 83.9918C171.843 83.9918 177.63 73.9715 178.2 73.0753C180.808 68.9205 183.335 64.8472 185.943 60.6924C188.633 56.3747 193.197 51.3238 198.332 55.8044C199.717 56.8635 200.369 58.7372 200.695 60.7739Z"
                              fill="white" />
                    <path
                              d="M162.143 21.5071C162.469 23.2993 161.817 25.1731 160.758 26.8024C160.024 27.9429 159.209 26.6395 157.905 26.3951C155.868 26.0692 155.705 23.3808 155.623 17.6782C154.727 15.2342 154.971 11.6496 155.216 11.3238C156.031 10.0203 157.987 9.69445 159.535 9.85738"
                              fill="#D5DDE5" />
                    <path
                              d="M166.3 40.7332C167.278 40.7332 169.316 40.163 169.805 39.9186C171.842 39.1854 175.266 36.9043 175.755 35.0306C173.636 36.1711 169.805 38.2078 166.219 38.5336C166.219 39.1854 166.219 40.0815 166.3 40.7332Z"
                              fill="#F2F4F7" />
                    <path
                              d="M177.792 34.949C176.977 35.7637 175.592 36.4969 174.043 37.2301C170.538 38.778 165.974 40 163.203 39.9185C160.595 39.837 158.72 35.1934 157.253 30.0611C157.009 29.3279 156.846 28.5132 156.683 27.6985C155.379 20.3666 157.498 11.7311 160.676 8.47246C163.855 5.29527 167.767 3.01421 172.413 2.52542C179.422 1.71075 181.378 9.04273 181.786 14.5824C182.112 20.7739 182.682 30.4684 177.792 34.949Z"
                              fill="white" />
                    <path
                              d="M161.573 23.7067C161.655 25.0102 161.492 26.3136 161.084 27.5356C161.003 27.6986 161.003 27.8615 160.921 28.0244L160.758 28.4318C160.758 28.5132 160.758 28.5132 160.677 28.5947C160.677 28.5947 160.758 28.6762 160.921 28.8391C161.492 29.2464 161.899 29.8167 162.144 30.4684C161.655 30.0611 161.084 29.6538 160.595 29.4094C160.514 29.3279 160.269 29.3279 160.106 29.0835C160.025 29.002 159.943 28.7576 159.943 28.6762C159.943 28.5132 159.943 28.4318 160.025 28.3503C160.106 28.1874 160.188 28.0244 160.188 27.8615C160.269 27.78 160.269 27.6171 160.351 27.4542C160.677 26.1507 161.003 24.9287 161.573 23.7067Z"
                              fill="#D5DDE5" />
                    <path
                              d="M178.525 13.5234C176.895 15.1527 165.24 15.3971 161.247 14.3381C157.742 13.3605 155.134 11.8126 153.422 8.55395C152.852 7.49489 152.281 6.27289 152.281 5.0509C152.281 3.8289 153.096 2.52544 154.319 2.28104C153.83 2.8513 154.4 3.8289 155.134 3.99183C155.867 4.15477 156.601 3.8289 157.253 3.50304C160.758 1.87371 164.425 0.325847 168.256 0.0814473C172.739 -0.244418 182.112 2.93277 180.563 9.04275"
                              fill="#D5DDE5" />
                    <path
                              d="M175.428 11.2424C174.369 12.3015 173.961 13.7678 173.798 15.2342C173.472 17.4338 173.472 19.7149 174.287 21.833C174.532 22.4033 174.532 25.1731 174.939 25.0917C175.102 25.0917 175.265 22.8921 175.754 21.7516C176.488 20.0408 179.259 19.552 180.319 20.774C182.112 22.7292 180.808 24.8473 179.993 26.1507C179.504 26.9654 178.852 27.7801 178.689 28.6762C178.444 29.8167 178.118 33.8086 178.77 34.8676C179.341 35.6823 180.319 31.9349 180.889 31.2017C185.453 25.9063 190.507 11.8941 183.823 8.22813C182.845 7.65787 179.585 7.16907 178.526 7.65787"
                              fill="#D5DDE5" />
                    <path
                              d="M173.473 26.9653L173.31 26.4766L173.391 26.7209L173.31 26.4766C173.31 26.4766 174.614 25.9063 175.429 23.2179L175.918 23.3808C175.021 26.3136 173.554 26.9653 173.473 26.9653Z"
                              fill="white" />
                    <path
                              d="M175.917 35.6823L175.673 35.2749C178.281 33.5641 178.688 27.2098 178.688 27.1283H179.178C179.178 27.4542 178.77 33.8085 175.917 35.6823Z"
                              fill="white" />
                    <path
                              d="M176.159 35.3449C176.159 35.3449 175.425 36.1596 173.877 37.1372C171.758 38.5221 168.09 40.07 163.037 39.8256C160.429 39.7441 158.554 35.1005 157.087 29.9682C156.842 29.235 158.799 26.8724 161.896 26.7095C165.156 26.5466 168.253 29.8052 173.551 26.2207C173.551 26.3022 174.203 32.5751 176.159 35.3449Z"
                              fill="#E6E8EB" />
                    <path
                              d="M168.582 55.3157C168.908 64.5214 165.241 74.4603 155.46 76.8229C149.999 78.1263 145.598 76.4155 140.545 74.3789C137.366 73.0754 133.862 72.5051 130.52 71.609C124 69.8167 118.213 72.4237 113.975 77.556C111.774 80.3259 110.552 83.5846 108.595 86.5174C105.743 90.9165 101.994 93.0347 96.859 93.5235C96.3699 93.6049 96.3699 94.2567 96.859 94.3381C105.254 94.9899 109.003 88.7169 112.589 82.1996C114.871 77.9634 118.539 73.9715 123.348 72.5051C126.282 71.609 129.053 72.5051 131.906 73.3198C134.188 73.9715 136.47 74.3789 138.752 75.0306C142.99 76.3341 146.495 78.5336 151.14 78.5336C154.645 78.5336 158.068 77.5561 161.002 75.6009C167.767 71.2017 169.723 62.9736 169.316 55.3972C169.153 54.9084 168.582 54.9084 168.582 55.3157Z"
                              fill="#A1A9B3" />
                    <path
                              d="M155.379 159.919C156.601 150.631 158.068 138.249 158.558 128.473C159.047 119.593 148.288 121.059 148.288 121.059C148.288 121.059 145.68 141.833 143.153 160H155.379V159.919Z"
                              fill="white" />
                    <path
                              d="M142.257 76.7414C142.257 76.7414 138.915 75.1935 137.204 73.6456C135.492 72.0978 133.699 70.387 133.128 70.1426C132.558 69.8982 130.194 69.3279 129.868 69.3279C129.461 69.3279 129.542 70.6314 130.357 71.0387C131.58 71.6904 131.906 71.9348 132.313 72.2607C132.802 72.668 131.824 72.5866 130.194 72.0163C129.053 71.609 125.875 69.2465 124.571 69.165C123.185 69.0835 124.408 70.7129 125.304 71.446C126.201 72.2607 128.727 73.9715 128.727 73.9715C128.727 73.9715 129.053 75.6008 129.298 75.9267C129.542 76.334 129.216 76.9858 129.298 77.6375C129.379 78.2892 129.624 78.778 129.624 79.0224C129.705 79.3483 129.705 80.4888 130.276 80.8147C130.765 81.1406 137.448 81.0591 138.1 81.4664C138.834 82.0367 142.257 76.7414 142.257 76.7414Z"
                              fill="#D4D6D9" />
                    <path
                              d="M178.037 23.8697C177.14 23.6253 176.896 24.6029 176.896 25.2546C176.896 25.9063 177.548 26.3137 178.118 25.8249C178.607 25.4175 178.689 24.277 178.281 23.7882C178.118 23.6253 177.955 23.5438 177.711 23.5438C177.385 23.6253 177.222 24.0326 177.14 24.3585C176.977 25.0102 177.059 25.9878 177.955 25.9878C178.852 25.9878 178.689 24.8473 178.526 24.3585C178.444 24.0326 178.281 23.6253 178.037 23.4623C177.711 23.2994 177.385 23.4623 177.222 23.7067C176.814 24.277 176.57 25.499 177.222 25.9063C177.792 26.3137 178.607 25.8249 178.77 25.2546C178.933 24.6843 178.607 23.2994 177.874 23.2179C177.059 23.1365 176.896 24.4399 176.896 24.9287C176.896 25.6619 177.385 26.3951 178.118 26.3137C179.015 26.3137 179.015 25.3361 178.933 24.6843C178.852 23.9511 178.118 23.055 177.303 23.6253C176.814 24.0326 176.814 25.0102 177.14 25.5805C177.548 26.3137 178.363 25.9878 178.689 25.4175C179.015 24.8473 179.178 23.7067 178.526 23.2994C177.711 22.8106 176.896 23.7882 176.977 24.5214C176.977 25.0917 177.629 26.8025 178.363 25.8249C178.933 25.0917 178.689 23.9511 178.118 23.2994C178.037 23.1365 177.792 23.1365 177.629 23.2994C177.222 23.7882 176.977 24.4399 177.14 25.0917C177.222 25.5805 177.711 26.0693 178.2 25.9063C178.689 25.8249 178.933 25.0917 178.933 24.6843C178.933 24.1955 178.689 23.7067 178.2 23.5438C178.037 23.4623 177.874 23.6253 177.792 23.7882C177.629 24.277 177.711 24.7658 178.118 25.0917C178.281 25.2546 178.526 25.1731 178.607 25.0102C178.77 24.6843 178.933 24.3585 178.77 24.0326C178.607 23.8697 178.363 23.7067 178.037 23.8697C177.385 24.0326 177.548 25.0917 177.792 25.5805C177.955 25.8249 178.2 25.7434 178.363 25.5805C178.689 25.1731 178.77 24.6029 178.689 24.1141C178.607 23.7067 178.2 23.2994 177.792 23.4623C177.385 23.6253 177.303 24.1955 177.303 24.6029C177.385 25.0917 177.629 25.4175 177.955 25.7434C178.118 25.8249 178.363 25.7434 178.444 25.6619C178.689 25.0102 179.178 23.1365 177.874 23.1365C176.814 23.2179 176.651 24.7658 177.385 25.3361C178.2 25.9063 179.015 24.4399 178.444 23.8697C178.2 23.6253 177.629 23.6253 177.466 23.9511C177.303 24.3585 177.629 24.6843 178.037 24.6843C178.363 24.6843 178.444 24.1955 178.118 24.1141C178.037 24.1955 177.955 24.277 177.874 24.3585C177.955 24.277 177.955 24.3585 177.955 24.4399C177.955 24.6843 177.874 24.6843 177.711 24.5214C177.548 24.3585 177.629 23.7067 177.874 23.7882C178.363 23.8697 177.955 25.0102 177.874 25.2546C178.037 25.2546 178.2 25.1731 178.363 25.1731C178.2 25.0917 178.118 24.8473 178.037 24.6843C178.037 24.6029 177.955 24.277 178.037 24.277C178.118 24.277 178.118 24.6843 178.118 24.7658C178.118 25.0102 178.037 25.1731 177.874 25.4175C178.037 25.4175 178.281 25.4175 178.444 25.4175C178.363 25.2546 178.363 25.0917 178.281 24.9287C178.281 24.8473 178.281 24.7658 178.281 24.7658C178.2 24.8473 178.118 24.9287 178.118 25.0102C178.281 25.0102 178.444 24.9287 178.607 24.9287C178.363 24.7658 178.363 24.5214 178.444 24.277C178.281 24.3585 178.2 24.4399 178.037 24.5214C178.363 24.6029 178.444 25.4175 178.118 25.499C177.874 25.5805 177.792 25.0917 177.792 24.8473C177.711 24.4399 177.874 24.1141 178.037 23.8697C177.955 23.8697 177.792 23.8697 177.629 23.8697C177.955 24.1955 178.037 24.6029 178.037 25.0102C178.037 25.0917 177.955 25.499 177.874 25.499C177.792 25.499 177.629 24.9287 177.629 24.7658C177.548 24.5214 177.548 24.277 177.711 24.1141C177.874 23.8697 178.2 23.7067 178.363 24.0326C178.444 24.277 178.363 24.6843 178.281 24.9287C178.2 25.0917 178.118 25.3361 177.955 25.3361C177.792 25.3361 177.792 25.0917 177.711 24.9287C177.711 24.7658 177.629 24.5214 177.711 24.3585C177.792 24.1141 178.118 24.0326 178.281 24.277C178.444 24.5214 178.607 25.4175 178.363 25.5805C177.955 25.9063 177.629 25.1731 177.548 24.9287C177.548 24.7658 177.629 23.7067 177.955 23.8697C178.037 23.8697 178.2 24.3585 178.2 24.4399C178.281 24.6843 178.363 25.0102 178.2 25.2546C178.118 25.3361 177.955 25.499 177.792 25.499C177.466 25.499 177.548 25.0917 177.548 24.8473C177.548 24.6843 177.548 24.4399 177.629 24.277C177.629 24.1141 177.711 24.0326 177.955 23.9511C178.037 24.1141 178.118 24.1955 178.118 24.3585C178.2 24.5214 178.281 24.7658 178.281 25.0102C178.281 25.4175 177.874 25.5805 177.711 25.0917C177.629 24.8473 177.711 24.4399 177.792 24.277C177.874 24.1141 178.037 23.7882 178.118 24.1141C178.281 24.4399 178.281 25.0917 177.955 25.3361C177.792 25.499 177.629 25.499 177.466 25.2546C177.466 25.0917 177.466 25.0102 177.466 24.8473C177.466 24.6029 177.548 23.9511 178.037 24.0326C178.118 24.3585 178.281 23.9511 178.037 23.8697Z"
                              fill="#A1A9B3" />
                    <path
                              d="M178.2 25.0916C180.645 25.336 182.193 25.499 183.09 28.2688C183.498 29.5723 183.416 31.1202 183.498 32.4236C183.742 35.1935 184.068 38.0448 183.905 40.8147C183.579 46.7617 181.134 52.4644 174.94 54.1751C169.56 55.6415 162.877 54.8269 159.617 49.776C156.275 44.6436 157.498 38.8595 157.416 33.1568C157.416 32.9124 157.009 32.8309 156.927 33.0753C155.216 39.4297 155.297 48.0652 160.595 52.8717C164.996 56.8635 172.658 56.945 177.792 54.3381C184.068 51.0794 185.209 43.3401 184.965 36.9857C184.72 32.0163 185.698 22.5662 178.037 24.5214C177.792 24.6028 177.874 25.0916 178.2 25.0916Z"
                              fill="#A1A9B3" />
                    <path
                              d="M170.539 56.1303C170.62 56.1303 170.62 55.9674 170.539 55.9674C170.457 55.9674 170.457 56.1303 170.539 56.1303Z"
                              fill="#2E2F44" />
                    <path
                              d="M171.924 84.0733C172.576 85.1324 173.309 86.0285 173.88 87.169C174.45 88.2281 174.613 89.2871 174.939 90.4277C175.021 90.6721 175.265 90.5906 175.347 90.3462C175.591 87.9022 173.88 85.5397 172.331 83.8289C172.087 83.5845 171.761 83.8289 171.924 84.0733Z"
                              fill="#A1A9B2" />
                    <path
                              d="M173.066 82.8513C173.962 83.4216 177.548 85.3768 176.489 86.7617C176.57 86.7617 176.733 86.7617 176.815 86.6803C176.57 86.4359 176.326 86.1915 176.081 85.9471C176 85.8656 175.837 85.9471 175.918 86.0285C176 86.4359 176.163 86.6803 176.489 87.0061C176.57 87.0876 176.733 87.0876 176.815 87.0061C178.282 85.2139 174.451 83.0143 173.31 82.444C173.066 82.3625 172.903 82.6884 173.066 82.8513Z"
                              fill="#A1A9B2" />
                    <path
                              d="M177.874 103.87C178.037 108.432 178.445 112.912 178.608 117.475C178.771 122.037 178.771 126.599 178.771 131.161C178.689 140.285 178.526 149.409 179.504 158.452C179.504 158.534 179.749 158.615 179.667 158.452C178.608 149.409 178.771 140.204 178.852 131.161C178.934 122.118 178.852 112.912 177.956 103.87C178.037 103.707 177.874 103.707 177.874 103.87Z"
                              fill="#A1A9B2" />
                    <path
                              d="M156.764 96.7007C156.764 106.884 157.335 117.149 156.031 127.251C154.645 137.597 153.341 147.943 151.874 158.289C151.874 158.452 152.037 158.452 152.119 158.289C153.423 148.025 154.89 137.76 156.275 127.495C157.661 117.23 157.172 106.884 156.927 96.6192C156.846 96.6192 156.764 96.6192 156.764 96.7007Z"
                              fill="#A1A9B2" />
                    <path
                              d="M135.9 91.4053C137.856 91.4867 139.812 91.8941 141.686 92.4643C141.768 92.4643 141.849 92.3829 141.768 92.3014C139.893 91.5682 137.937 91.2423 135.9 91.2423C135.737 91.1609 135.737 91.4053 135.9 91.4053Z"
                              fill="#A1A9B2" />
                    <path
                              d="M174.858 102.974C179.83 104.684 184.883 100.285 187.41 96.4562C189.284 93.6049 190.914 90.6721 192.789 87.9023C194.989 84.6436 197.516 81.5479 199.961 78.4522C200.043 78.3707 199.88 78.2078 199.798 78.2892C195.723 82.607 192.218 87.5764 189.203 92.6273C187.654 95.1528 186.269 97.8412 183.986 99.8778C181.623 101.914 178.118 103.544 175.021 102.485C174.695 102.403 174.613 102.892 174.858 102.974Z"
                              fill="#A1A9B2" />
                    <path
                              d="M189.855 56.7006C192.137 54.3381 194.908 53.8493 198.087 54.0122C198.331 54.0122 198.331 53.6863 198.168 53.6049C195.153 52.6273 191.648 54.0937 189.61 56.3747C189.366 56.6191 189.692 56.8635 189.855 56.7006Z"
                              fill="#A1A9B2" />
                    <path
                              d="M187.817 57.6782C187.002 58.0855 186.595 58.7373 186.595 59.6334C186.595 59.8778 186.921 59.8778 186.921 59.7149C187.084 59.0631 187.573 58.4929 188.062 58.0855C188.306 57.8411 188.062 57.5967 187.817 57.6782Z"
                              fill="#A1A9B2" />
                    <path
                              d="M175.673 76.9042C177.385 75.1119 178.526 73.0753 179.585 70.8757C180.89 68.3502 182.275 66.2321 184.068 64.114C184.231 63.951 183.987 63.6252 183.824 63.7881C179.504 66.558 178.689 72.9124 175.429 76.6598C175.266 76.8227 175.51 77.0671 175.673 76.9042Z"
                              fill="#A1A9B2" />
                    <path
                              d="M113.16 94.501C112.426 94.3381 111.611 93.7678 110.959 93.4419C110.144 93.0346 109.411 92.5458 108.596 92.1385C106.069 90.835 102.809 90.9165 100.364 92.3829C100.201 92.4643 99.9562 92.6273 99.9562 92.8717C99.8747 93.279 100.527 93.5234 100.934 93.5234C101.994 93.6049 103.053 93.7678 104.113 93.7678C104.276 95.0713 105.091 96.2118 106.069 96.945C107.047 97.6782 108.27 98.167 109.492 98.4114C110.633 98.6558 111.774 98.9002 112.915 98.9002C113.404 97.7597 113.486 96.6191 113.486 95.3971C113.486 95.3157 113.404 94.3381 113.323 94.3381C113.241 94.501 113.241 94.501 113.16 94.501Z"
                              fill="#E6E8EB" />
                    <g opacity="0.2">
                              <path
                                        d="M100.853 92.1385C102.32 91.3239 104.52 91.0795 106.232 91.4053C106.313 91.4053 106.395 91.2424 106.313 91.2424C105.58 90.998 104.602 91.1609 103.868 91.1609C102.809 91.3239 101.749 91.5683 100.853 92.1385C100.853 92.22 100.771 92.1385 100.853 92.1385Z"
                                        fill="#D8DBDF" />
                    </g>
                    <path
                              d="M137.53 90.4277C138.019 90.2648 138.59 90.1833 139.16 90.1833C139.649 90.1833 140.138 90.3462 140.627 90.4277C140.872 90.4277 140.953 90.1018 140.79 90.0204C139.894 89.2872 138.264 89.4501 137.367 90.0204C137.123 90.1018 137.286 90.4277 137.53 90.4277Z"
                              fill="#A1A9B2" />
                    <path
                              d="M166.464 22.4847C165.812 22.6477 165.812 23.5438 165.812 24.1141C165.893 24.6843 166.056 25.2546 166.79 25.3361C166.953 25.3361 167.197 25.2546 167.279 25.0917C167.605 24.3585 167.686 23.5438 167.279 22.8106C167.197 22.6477 166.871 22.4847 166.708 22.5662C166.382 22.6477 166.219 22.8921 166.219 23.2179C166.138 23.6253 166.79 23.8697 167.034 23.5438L167.116 23.4623C166.871 23.3809 166.627 23.2994 166.382 23.2994C166.464 23.4623 166.545 23.6253 166.627 23.8697C166.627 24.0326 166.627 24.277 166.545 24.3585C166.708 24.277 166.871 24.277 167.034 24.1955C166.871 24.1141 166.953 24.1955 167.116 24.277C167.116 24.1955 167.116 24.1141 167.116 24.0326C167.116 23.8697 167.116 23.7067 167.116 23.5438C167.116 23.1365 167.279 22.8921 166.953 22.5662C166.79 22.4847 166.627 22.4033 166.464 22.4847Z"
                              fill="#A1A9B3" />
                    <path
                              d="M158.802 23.2994C157.906 23.4624 157.987 25.6619 158.965 25.6619C159.454 25.6619 159.617 25.0102 159.699 24.6029C159.78 24.1141 159.617 23.4624 159.21 23.218C158.069 22.4848 157.661 25.0102 158.558 25.5805C159.128 25.9063 159.617 25.3361 159.699 24.8473C159.78 24.277 159.699 23.6253 159.21 23.2994C158.802 23.055 158.313 23.4624 158.476 23.8697C158.558 24.0326 158.639 24.1141 158.639 24.277C158.721 24.3585 158.639 24.5214 158.639 24.6029C158.558 24.8473 158.721 24.8473 159.21 24.7658C159.21 24.6843 159.21 24.6029 159.21 24.5214C159.21 24.44 159.21 24.3585 159.21 24.277C159.291 24.1141 159.291 24.1141 159.128 24.277C158.965 24.277 158.884 24.277 158.721 24.3585C158.558 24.3585 158.721 24.277 158.721 24.44C158.721 24.5214 158.802 24.6029 158.802 24.6843C158.802 24.8473 158.802 25.0917 158.802 25.0917C158.884 25.0917 159.047 25.0917 159.128 25.0102C159.291 25.0917 159.128 24.8473 159.128 24.7658C159.128 24.6029 159.128 24.4399 159.128 24.3585C159.128 24.1141 159.21 23.9512 159.21 23.7068C159.047 23.3809 158.965 23.2994 158.802 23.2994Z"
                              fill="#A1A9B3" />
                    <path
                              d="M165.811 20.3666C167.36 19.0631 169.479 19.9593 171.109 20.4481C171.353 20.5295 171.598 20.2037 171.353 20.0407C169.886 18.7373 166.871 18.4929 165.485 20.1222C165.403 20.2851 165.648 20.5295 165.811 20.3666Z"
                              fill="#A1A9B3" />
                    <path
                              d="M160.025 20.0407C159.21 19.0631 156.439 18.7372 155.787 20.1221C155.705 20.2036 155.787 20.3665 155.868 20.3665C156.52 20.2851 157.091 19.9592 157.743 19.8777C158.476 19.8777 159.128 20.1221 159.78 20.3665C160.025 20.3665 160.106 20.1221 160.025 20.0407Z"
                              fill="#A1A9B3" />
                    <path
                              d="M165.975 126.028C166.138 129.287 166.627 132.627 167.034 135.804C167.36 138.085 168.42 139.552 170.131 141.1C170.376 141.344 170.865 140.937 170.539 140.692C169.724 139.878 168.827 139.063 168.257 138.085C167.523 136.701 167.523 134.99 167.36 133.523C167.034 131.079 166.871 128.554 166.382 126.11C166.382 125.784 165.975 125.784 165.975 126.028Z"
                              fill="#A1A9B2" />
                    <path
                              d="M158.639 124.562C159.78 125.051 160.921 125.295 162.062 125.54C163.448 125.784 164.834 126.273 166.219 126.436C169.072 126.843 172.006 126.273 174.859 126.11C175.348 126.11 175.348 125.377 174.859 125.377C172.006 125.54 169.153 126.028 166.382 125.703C163.856 125.377 161.166 124.806 158.721 124.155C158.558 124.155 158.395 124.481 158.639 124.562Z"
                              fill="#A1A9B2" />
                    <path
                              d="M169.56 127.088C169.316 131.242 170.05 135.642 170.457 139.796C170.702 141.914 170.946 144.033 171.191 146.232C171.354 147.78 171.272 149.817 172.006 151.202C172.087 151.283 172.169 151.283 172.169 151.202C172.576 149.491 171.924 147.291 171.68 145.58C171.435 143.462 171.191 141.263 170.946 139.145C170.539 135.153 170.457 130.998 169.887 127.006C169.887 126.843 169.56 126.925 169.56 127.088Z"
                              fill="#A1A9B2" />
          </g>
          <defs>
                    <clipPath id="clip0_7151_2285">
                              <rect width="273.445" height="160" fill="white"
                                        transform="translate(0.277344)" />
                    </clipPath>
                    <clipPath id="clip1_7151_2285">
                              <rect width="69.5652" height="133.244" fill="white"
                                        transform="translate(57.5352 27.826)" />
                    </clipPath>
          </defs>
</svg>